<svg width="114" height="19" viewBox="0 0 114 19" fill="none" xmlns="http://www.w3.org/2000/svg">
<path d="M-7.42199e-05 17.76L6.64793 0.960009H10.1039L16.7039 17.76H12.5759L9.40793 9.24001C9.27993 8.90401 9.15193 8.54401 9.02393 8.16001C8.89593 7.77601 8.76793 7.38401 8.63993 6.98401C8.51193 6.56801 8.38393 6.16801 8.25593 5.78401C8.14393 5.38401 8.04793 5.01601 7.96793 4.68001L8.68793 4.65601C8.59193 5.05601 8.47993 5.44801 8.35193 5.83201C8.23993 6.21601 8.11993 6.60001 7.99193 6.98401C7.87993 7.35201 7.75193 7.72801 7.60793 8.11201C7.46393 8.48001 7.32793 8.86401 7.19993 9.26401L4.03193 17.76H-7.42199e-05ZM3.16793 14.544L4.43993 11.472H12.1679L13.4159 14.544H3.16793ZM26.048 18.024C25.472 18.024 24.92 17.944 24.392 17.784C23.864 17.624 23.384 17.408 22.952 17.136C22.536 16.864 22.184 16.552 21.896 16.2C21.624 15.832 21.44 15.456 21.344 15.072L22.184 14.784L21.968 17.736H18.392V9.53674e-06H22.256V8.06401L21.464 7.77601C21.56 7.36001 21.744 6.97601 22.016 6.62401C22.288 6.25601 22.632 5.93601 23.048 5.66401C23.464 5.37601 23.92 5.15201 24.416 4.99201C24.912 4.83201 25.424 4.75201 25.952 4.75201C27.056 4.75201 28.032 5.04001 28.88 5.61601C29.744 6.17601 30.424 6.96001 30.92 7.96801C31.416 8.96001 31.664 10.096 31.664 11.376C31.664 12.672 31.416 13.824 30.92 14.832C30.44 15.824 29.776 16.608 28.928 17.184C28.08 17.744 27.12 18.024 26.048 18.024ZM25.04 14.784C25.616 14.784 26.12 14.64 26.552 14.352C26.984 14.064 27.312 13.672 27.536 13.176C27.776 12.664 27.896 12.064 27.896 11.376C27.896 10.704 27.776 10.112 27.536 9.60001C27.312 9.08801 26.984 8.69601 26.552 8.42401C26.12 8.15201 25.616 8.01601 25.04 8.01601C24.448 8.01601 23.936 8.15201 23.504 8.42401C23.072 8.69601 22.736 9.08801 22.496 9.60001C22.256 10.112 22.136 10.704 22.136 11.376C22.136 12.064 22.256 12.664 22.496 13.176C22.736 13.672 23.072 14.064 23.504 14.352C23.936 14.64 24.448 14.784 25.04 14.784ZM40.1889 18C38.8609 18 37.6769 17.712 36.6369 17.136C35.6129 16.56 34.7969 15.776 34.1889 14.784C33.5969 13.792 33.3009 12.656 33.3009 11.376C33.3009 10.096 33.5969 8.96001 34.1889 7.96801C34.7969 6.97601 35.6129 6.19201 36.6369 5.61601C37.6769 5.04001 38.8609 4.75201 40.1889 4.75201C41.5169 4.75201 42.6929 5.04001 43.7169 5.61601C44.7569 6.19201 45.5729 6.97601 46.1649 7.96801C46.7569 8.96001 47.0529 10.096 47.0529 11.376C47.0529 12.656 46.7569 13.792 46.1649 14.784C45.5729 15.776 44.7569 16.56 43.7169 17.136C42.6929 17.712 41.5169 18 40.1889 18ZM40.1889 14.688C40.7649 14.688 41.2769 14.544 41.7249 14.256C42.1729 13.968 42.5249 13.576 42.7809 13.08C43.0369 12.584 43.1569 12.016 43.1409 11.376C43.1569 10.736 43.0369 10.168 42.7809 9.67201C42.5249 9.16001 42.1729 8.76001 41.7249 8.47201C41.2769 8.18401 40.7649 8.04001 40.1889 8.04001C39.6129 8.04001 39.0929 8.18401 38.6289 8.47201C38.1809 8.76001 37.8289 9.16001 37.5729 9.67201C37.3169 10.168 37.1969 10.736 37.2129 11.376C37.1969 12.016 37.3169 12.584 37.5729 13.08C37.8289 13.576 38.1809 13.968 38.6289 14.256C39.0929 14.544 39.6129 14.688 40.1889 14.688ZM53.9079 18.024C52.9639 18.024 52.1559 17.824 51.4839 17.424C50.8279 17.008 50.3159 16.416 49.9479 15.648C49.5959 14.88 49.4199 13.96 49.4199 12.888V5.01601H53.2839V12.36C53.2839 12.872 53.3639 13.312 53.5239 13.68C53.6839 14.048 53.9239 14.336 54.2439 14.544C54.5639 14.736 54.9479 14.832 55.3959 14.832C55.7319 14.832 56.0359 14.776 56.3079 14.664C56.5959 14.552 56.8359 14.4 57.0279 14.208C57.2359 14 57.3959 13.768 57.5079 13.512C57.6199 13.24 57.6759 12.944 57.6759 12.624V5.01601H61.5399V17.76H57.9159L57.7479 15.144L58.4679 14.856C58.2759 15.464 57.9559 16.008 57.5079 16.488C57.0599 16.952 56.5239 17.328 55.8999 17.616C55.2759 17.888 54.6119 18.024 53.9079 18.024ZM66.0183 17.76V1.80001H69.8583V17.76H66.0183ZM63.7623 8.37601V5.01601H72.3303V8.37601H63.7623Z" fill="white"/>
<path d="M74.9328 17.76V0.960009H78.5808L84.7008 10.92L82.0848 10.896L88.2768 0.960009H91.7808V17.76H87.8208V12.528C87.8208 11.088 87.8528 9.79201 87.9168 8.64001C87.9968 7.48801 88.1248 6.34401 88.3008 5.20801L88.7568 6.45601L84.1008 13.68H82.5168L77.9568 6.50401L78.4128 5.20801C78.5888 6.28001 78.7088 7.38401 78.7728 8.52001C78.8528 9.64001 78.8928 10.976 78.8928 12.528V17.76H74.9328ZM101.667 18C100.259 18 99.0351 17.72 97.9951 17.16C96.9551 16.584 96.1471 15.808 95.5711 14.832C94.9951 13.84 94.7071 12.712 94.7071 11.448C94.7071 10.472 94.8671 9.57601 95.1871 8.76001C95.5071 7.94401 95.9551 7.24001 96.5311 6.64801C97.1071 6.04001 97.7871 5.57601 98.5711 5.25601C99.3711 4.92001 100.243 4.75201 101.187 4.75201C102.083 4.75201 102.899 4.91201 103.635 5.23201C104.387 5.55201 105.035 6.00001 105.579 6.57601C106.123 7.15201 106.539 7.83201 106.827 8.61601C107.115 9.40001 107.243 10.256 107.211 11.184L107.187 12.216H97.0351L96.4831 10.056H104.067L103.659 10.512V10.032C103.627 9.63201 103.499 9.28001 103.275 8.97601C103.067 8.65601 102.787 8.40801 102.435 8.23201C102.083 8.05601 101.683 7.96801 101.235 7.96801C100.611 7.96801 100.075 8.09601 99.6271 8.35201C99.1951 8.59201 98.8671 8.95201 98.6431 9.43201C98.4191 9.89601 98.3071 10.472 98.3071 11.16C98.3071 11.864 98.4511 12.48 98.7391 13.008C99.0431 13.52 99.4751 13.92 100.035 14.208C100.611 14.496 101.291 14.64 102.075 14.64C102.619 14.64 103.099 14.56 103.515 14.4C103.947 14.24 104.411 13.968 104.907 13.584L106.707 16.128C106.211 16.56 105.683 16.912 105.123 17.184C104.563 17.456 103.987 17.656 103.395 17.784C102.819 17.928 102.243 18 101.667 18ZM111.026 18.024C110.37 18.024 109.858 17.84 109.49 17.472C109.138 17.104 108.962 16.576 108.962 15.888C108.962 15.248 109.154 14.728 109.538 14.328C109.922 13.928 110.418 13.728 111.026 13.728C111.682 13.728 112.194 13.92 112.562 14.304C112.93 14.672 113.114 15.2 113.114 15.888C113.114 16.512 112.922 17.024 112.538 17.424C112.154 17.824 111.65 18.024 111.026 18.024Z" fill="#EAB308"/>
</svg>
