<svg width="40" height="36" viewBox="0 0 40 36" fill="none" xmlns="http://www.w3.org/2000/svg">
<path d="M32.5 3.75C32.5 2.75544 32.8951 1.80161 33.5984 1.09835C34.3016 0.395088 35.2554 0 36.25 0C37.2446 0 38.1984 0.395088 38.9016 1.09835C39.6049 1.80161 40 2.75544 40 3.75V31.25C40 32.2446 39.6049 33.1984 38.9016 33.9017C38.1984 34.6049 37.2446 35 36.25 35C35.2554 35 34.3016 34.6049 33.5984 33.9017C32.8951 33.1984 32.5 32.2446 32.5 31.25V30.715C27.095 27.6125 21.275 26.1075 15.22 25.5075L16.2325 32.2875C16.3005 32.6487 16.288 33.0205 16.1959 33.3763C16.1039 33.7321 15.9345 34.0633 15.6998 34.3461C15.4651 34.629 15.171 34.8567 14.8383 35.0129C14.5056 35.1692 14.1425 35.2501 13.775 35.25H12.405C11.9191 35.25 11.4437 35.1083 11.0369 34.8423C10.6302 34.5764 10.3099 34.1977 10.115 33.7525L5.49 25.0275C5.32167 25.0248 5.15334 25.0223 4.985 25.02C3.66091 25.0069 2.3953 24.4726 1.46226 23.5331C0.529226 22.5935 0.00387961 21.3241 0 20L0 15C0.00446196 13.6757 0.528925 12.4062 1.46041 11.4649C2.39189 10.5236 3.65585 9.98585 4.98 9.9675C7.05006 9.93943 9.11952 9.87692 11.1875 9.78C18.795 9.395 26.5575 7.6575 32.5 4.2825V3.75ZM35 3.75V31.25C35 31.5815 35.1317 31.8995 35.3661 32.1339C35.6005 32.3683 35.9185 32.5 36.25 32.5C36.5815 32.5 36.8995 32.3683 37.1339 32.1339C37.3683 31.8995 37.5 31.5815 37.5 31.25V3.75C37.5 3.41848 37.3683 3.10054 37.1339 2.86612C36.8995 2.6317 36.5815 2.5 36.25 2.5C35.9185 2.5 35.6005 2.6317 35.3661 2.86612C35.1317 3.10054 35 3.41848 35 3.75ZM32.5 7.125C26.64 10.1375 19.4775 11.73 12.5 12.2075V22.79C12.95 22.815 13.3975 22.845 13.8425 22.88C20.2625 23.3525 26.575 24.74 32.5 27.8625V7.125ZM10 22.6625V12.3375C8.3405 12.3982 6.68041 12.4416 5.02 12.4675C4.35193 12.4753 3.71362 12.7451 3.24236 13.2187C2.7711 13.6923 2.50454 14.3319 2.5 15V20C2.5 21.375 3.62 22.505 5.015 22.5225C6.67732 22.5418 8.33922 22.5884 10 22.6625ZM8.3575 25.1L12.38 32.6925L12.405 32.7525H13.775L13.77 32.7175L12.6625 25.3025C11.2284 25.216 9.79331 25.1476 8.3575 25.0975V25.1Z" fill="#EAB308"/>
</svg>
